<?xml version="1.0" encoding="UTF-8" standalone="no" ?>
<!DOCTYPE svg PUBLIC "-//W3C//DTD SVG 1.1//EN" "http://www.w3.org/Graphics/SVG/1.1/DTD/svg11.dtd">
<svg xmlns="http://www.w3.org/2000/svg" xmlns:xlink="http://www.w3.org/1999/xlink" version="1.1" width="1080" height="1080" viewBox="0 0 1080 1080" xml:space="preserve">
<desc>Created with Fabric.js 5.2.4</desc>
<defs>
</defs>
<rect x="0" y="0" width="100%" height="100%" fill="transparent"></rect>
<g transform="matrix(1 0 0 1 540 540)" id="de523738-ef5c-4b34-bc6a-7c84c7face27"  >
<rect style="stroke: none; stroke-width: 1; stroke-dasharray: none; stroke-linecap: butt; stroke-dashoffset: 0; stroke-linejoin: miter; stroke-miterlimit: 4; fill: rgb(255,255,255); fill-rule: nonzero; opacity: 1; visibility: hidden;" vector-effect="non-scaling-stroke"  x="-540" y="-540" rx="0" ry="0" width="1080" height="1080" />
</g>
<g transform="matrix(1 0 0 1 540 540)" id="2e3b6aa7-b1d5-4947-8047-d3bbe6ed6f0a"  >
</g>
<g transform="matrix(1.29 0 0 1.29 579.89 545)" id="f9df4578-500b-4d9b-a20a-395121a3c4fe"  >
<path style="stroke: rgb(255,255,255); stroke-width: 10; stroke-dasharray: none; stroke-linecap: butt; stroke-dashoffset: 0; stroke-linejoin: miter; stroke-miterlimit: 4; fill: rgb(255,255,255); fill-rule: nonzero; opacity: 1;" vector-effect="non-scaling-stroke"  transform=" translate(-365.48, -179.8)" d="M 658 11 C 537.0583878796227 33.3401322800196 418.52210319234223 67.1598067246955 303.9999999999984 112.00000000000045 L 287 117 C 285 116 285 114 289 86 C 290.1901404585151 72.6979962281738 290.85732142661965 59.35437686608286 291 45.999999999999936 C 289 46 286 50 277 66 C 266 85 259 97 254 102 C 251 105 251 105 249 103 C 248 101 248 97 251 94 L 254 89 C 257 84 251 82 247 86 C 244 88 242 95 242 101 C 242 115 250 116 260 105 L 272 87 C 283 69 285 67 284 77 L 275 122 L 262 127 C 191 153 88 200 65 216 C 60 219 60 223 63 224 C 66 224 69 224 89 217 L 118 210 C 136 205 140 204 140 201 C 139 198 130 199 111 204 C 93 209 92 210 92 208 L 145 183 C 198 160 270 131 273 131 C 275 131 274 138 271 156 C 268 181 266 186 263 189 L 235 204 C 221 210 216 213 216 216 C 216 218 216 218 221 218 L 240 213 C 258 207 260 207 260 210 L 254 239 C 241 304 236 334 236 344 C 236 349 236 349 239 349 C 242 349 242 349 243 343 L 246 327 C 248 308 265 222 268 210 L 272 205 C 281 201 315 202 333 206 C 356 212 368 232 360 249 C 350 270 281 314 281 298 C 281 293 294 278 307 270 C 315 265 321 259 321 258 L 319 256 C 317 255 308 259 298 268 C 287 276 280 284 276 291 C 272 299 272 302 275 306 C 278 308 278 309 284 308 C 292 308 302 305 318 295 C 343 280 359 266 366 252 C 370 244 370 243 370 236 C 370 225 365 217 353 207 C 340 198 330 196 298 196 L 272 195 L 272 193 C 385.07411650087187 120.8551900980374 507.5626678713862 64.65851955167554 635.9999999999999 26.000000000000455 C 662 18 669 16 670 13 C 670 11 667 10 657 11 z M 583 34 C 584 35 578 38 542 51 C 448.2151186482955 82.5298839120853 358.82894982054336 125.87881541125836 275.9999999999995 180.00000000000034 C 274 180 275 178 278 159 L 281 137 L 284 127 L 299 120 C 346 103 512 50 563 37 C 578 33 582 32 583 34 z M 263 199 C 263 201 260 203 259 201 C 257 200 259 197 261 197 L 263 199 z" stroke-linecap="round" />
</g>
</svg>